<?xml version="1.0" standalone="no"?>
<!DOCTYPE svg PUBLIC "-//W3C//DTD SVG 20010904//EN"
 "http://www.w3.org/TR/2001/REC-SVG-20010904/DTD/svg10.dtd">
<svg version="1.0" xmlns="http://www.w3.org/2000/svg"
 width="1019.000000pt" height="1019.000000pt" viewBox="0 0 1019.000000 1019.000000"
 preserveAspectRatio="xMidYMid meet">
<metadata>
Created by potrace 1.11, written by Peter Selinger 2001-2013
</metadata>
<g transform="translate(0.000000,1019.000000) scale(0.100000,-0.100000)"
fill="#000000" stroke="none">
<path d="M5195 9749 c-33 -16 -66 -37 -72 -46 -7 -9 -13 -13 -13 -9 0 14 -110
-104 -126 -137 -9 -18 -20 -34 -23 -37 -22 -18 -86 -154 -125 -265 -45 -131
-54 -191 -60 -430 -4 -126 -11 -250 -17 -275 -5 -25 -13 -121 -17 -215 -6
-130 -11 -178 -25 -204 -9 -19 -17 -38 -17 -43 0 -8 -35 -44 -72 -74 -34 -27
-278 -20 -278 8 0 5 -5 6 -11 2 -20 -12 -119 48 -136 83 -8 18 -19 33 -23 33
-4 0 -40 32 -80 70 -40 39 -75 70 -79 70 -4 0 -16 8 -27 18 -11 10 -38 27 -62
37 -23 10 -42 22 -42 26 0 8 -38 18 -102 25 -58 7 -69 -8 -44 -60 9 -19 16
-40 16 -48 0 -8 6 -20 13 -26 9 -10 14 -94 18 -320 5 -299 16 -412 44 -477 32
-73 45 -185 45 -376 0 -196 -14 -294 -46 -330 -8 -8 -14 -21 -14 -27 0 -6 -11
-35 -24 -64 -13 -29 -36 -79 -50 -110 -26 -56 -161 -208 -185 -208 -6 0 -11
-4 -11 -10 0 -5 -6 -10 -13 -10 -7 0 -19 -6 -25 -12 -7 -7 -16 -13 -20 -13 -4
0 -23 -6 -42 -14 -19 -7 -44 -16 -55 -21 -65 -24 -105 -29 -238 -30 -122 0
-160 4 -215 21 -77 23 -204 84 -310 147 -40 24 -79 41 -87 38 -8 -3 -15 -1
-15 4 0 6 -7 10 -15 10 -9 0 -18 7 -21 15 -4 8 -10 15 -15 15 -10 0 -24 10
-60 43 -10 9 -24 17 -29 17 -5 0 -10 3 -10 8 0 4 -21 21 -45 37 -25 17 -45 33
-45 38 0 4 -7 7 -15 7 -9 0 -18 7 -21 15 -4 8 -12 15 -20 15 -8 0 -14 5 -14
10 0 6 -7 10 -15 10 -8 0 -15 5 -15 10 0 6 -6 10 -13 10 -8 0 -22 9 -32 20
-10 11 -22 20 -27 20 -16 0 -108 65 -113 81 -3 10 -17 16 -36 16 -17 0 -34 5
-38 12 -17 26 -129 38 -169 17 -18 -9 -32 -13 -32 -9 0 5 -4 2 -9 -5 -4 -7
-15 -14 -25 -16 -9 -1 -32 -19 -51 -40 -19 -21 -35 -36 -35 -32 0 3 -15 -9
-33 -27 -17 -18 -54 -42 -80 -52 -26 -10 -50 -22 -53 -26 -9 -15 -109 -10
-130 6 -10 8 -28 15 -39 15 -19 0 -93 43 -105 61 -3 4 -17 13 -30 19 -42 19
-72 38 -80 51 -9 14 -102 39 -275 75 -66 13 -127 27 -135 30 -8 4 -31 8 -50
10 -84 9 -135 41 -184 117 -44 66 -67 19 -73 -153 -6 -142 -1 -200 20 -222 7
-8 25 -40 42 -73 16 -33 32 -62 35 -65 18 -17 71 -128 68 -143 -1 -7 5 -25 13
-42 9 -16 26 -82 38 -145 35 -178 64 -294 78 -308 7 -7 13 -24 13 -37 0 -38
15 -67 59 -112 23 -23 41 -46 41 -51 0 -5 10 -18 22 -29 32 -28 58 -61 58 -73
0 -12 36 -31 44 -23 3 3 6 -6 6 -21 0 -15 7 -40 15 -55 27 -52 28 -102 6 -168
-32 -95 -30 -105 32 -138 28 -16 54 -31 57 -35 14 -19 62 -35 123 -41 46 -4
78 -13 97 -27 15 -12 43 -23 62 -25 51 -7 90 -18 126 -38 17 -10 32 -16 32
-13 0 4 11 -1 25 -10 14 -9 30 -14 34 -11 5 3 11 0 13 -5 2 -6 10 -12 18 -14
15 -3 37 -11 75 -26 11 -4 46 -14 78 -21 33 -7 57 -18 57 -25 0 -7 47 -36 105
-64 58 -29 105 -56 105 -61 0 -5 5 -9 11 -9 6 0 27 -18 47 -40 50 -53 57 -63
71 -87 14 -28 15 -323 1 -323 -5 0 -10 -7 -10 -15 0 -43 -104 -295 -122 -295
-5 0 -8 -16 -8 -35 0 -19 -6 -37 -15 -42 -11 -6 -16 -39 -21 -136 -4 -74 -3
-127 2 -128 5 0 16 -2 25 -4 9 -1 43 6 75 17 118 41 340 71 354 48 4 -7 41
-14 88 -17 60 -4 87 -11 101 -25 11 -10 24 -17 28 -16 20 6 73 -23 90 -49 9
-15 23 -32 30 -36 20 -12 93 -85 93 -93 0 -3 10 -19 23 -34 12 -15 28 -37 36
-48 8 -12 18 -19 22 -17 12 8 32 -23 81 -124 26 -53 43 -97 38 -99 -17 -6 19
-54 117 -158 61 -64 97 -89 113 -79 6 3 10 1 10 -4 0 -6 5 -11 10 -11 6 0 21
-10 34 -23 13 -12 33 -29 45 -37 11 -8 21 -19 21 -25 0 -6 9 -11 19 -12 11 -1
28 -10 39 -20 10 -10 30 -27 43 -37 13 -11 18 -21 12 -23 -6 -2 8 -24 30 -48
53 -57 78 -89 94 -125 4 -8 9 -17 12 -20 29 -24 45 -235 22 -292 -5 -13 -17
-48 -26 -78 -15 -50 -27 -80 -73 -180 -20 -43 -168 -190 -192 -190 -5 0 -10
-5 -10 -11 0 -5 -5 -7 -10 -4 -6 3 -13 -1 -16 -9 -3 -9 -11 -16 -18 -16 -6 0
-21 -11 -34 -25 -13 -13 -27 -24 -30 -24 -24 4 -42 -3 -42 -15 0 -13 -38 -33
-49 -27 -2 2 -8 -4 -13 -13 -5 -9 -13 -14 -19 -11 -5 4 -9 1 -9 -5 0 -6 -4 -8
-10 -5 -5 3 -10 1 -10 -4 0 -6 -3 -10 -7 -9 -5 1 -33 -9 -63 -24 -109 -53
-350 -146 -420 -163 -8 -1 -51 -13 -95 -25 -44 -12 -118 -27 -165 -34 -54 -8
-106 -24 -140 -42 -30 -15 -58 -28 -61 -29 -3 0 -13 -7 -22 -15 -35 -32 -45
-39 -51 -33 -3 4 -6 0 -6 -7 0 -8 -15 -27 -33 -44 -19 -17 -39 -41 -46 -54 -7
-12 -16 -20 -22 -17 -5 4 -9 0 -9 -8 0 -8 -9 -25 -21 -38 -19 -22 -57 -97
-102 -204 -22 -50 -57 -174 -57 -198 0 -38 50 -67 114 -67 25 0 46 4 46 8 0 8
37 28 160 86 135 63 323 77 525 38 170 -32 210 -34 675 -42 433 -8 435 -8 540
-36 96 -25 123 -28 318 -31 195 -4 220 -2 278 16 35 12 78 21 96 21 84 1 258
66 281 106 4 8 13 14 18 14 15 0 99 83 99 98 0 6 5 12 10 12 6 0 10 5 10 11 0
6 6 17 14 25 13 13 56 139 69 204 10 49 103 406 109 416 3 5 8 22 12 38 4 17
15 41 25 55 10 14 21 35 25 47 3 11 18 25 33 30 32 11 59 -9 65 -48 2 -13 9
-22 17 -20 8 2 42 6 77 9 67 6 73 12 74 78 0 48 10 72 33 82 24 10 57 6 57 -7
0 -4 10 -10 23 -14 37 -9 79 -109 154 -366 9 -30 19 -66 24 -80 4 -14 15 -52
25 -85 10 -33 24 -66 31 -73 7 -7 13 -25 13 -38 0 -14 9 -44 20 -66 11 -23 20
-50 20 -60 0 -10 3 -18 8 -18 7 0 25 -37 37 -77 3 -13 10 -23 15 -23 5 0 14
-16 21 -34 7 -19 16 -33 21 -30 4 3 8 1 8 -4 0 -11 84 -98 131 -134 25 -20 50
-29 96 -34 87 -9 429 1 483 14 74 18 273 52 303 52 16 0 36 4 46 10 10 5 63
12 117 15 54 3 116 10 139 15 61 14 156 12 225 -6 48 -12 102 -15 253 -12 167
3 197 6 232 23 22 11 42 23 45 27 3 4 77 9 165 11 88 3 166 6 173 8 6 1 12 12
12 24 0 30 -20 85 -31 85 -5 0 -9 11 -9 25 0 18 -27 52 -100 125 -55 55 -103
100 -107 100 -4 0 -16 9 -28 20 -39 37 -61 55 -98 80 -20 14 -37 28 -37 33 0
4 -7 7 -15 7 -9 0 -18 7 -21 15 -4 8 -13 15 -20 15 -8 0 -17 7 -20 15 -4 8
-13 15 -20 15 -8 0 -17 7 -20 15 -4 8 -12 15 -20 15 -8 0 -14 4 -14 8 0 4 -13
16 -30 25 -16 10 -35 23 -42 30 -7 7 -29 23 -49 36 -25 17 -35 30 -31 43 2 10
0 18 -5 18 -9 0 -53 32 -82 60 -25 23 -116 80 -129 80 -7 0 -12 5 -12 10 0 6
-7 10 -15 10 -8 0 -15 5 -15 10 0 6 -7 10 -15 10 -8 0 -15 4 -15 8 0 4 -15 16
-32 27 -18 10 -41 28 -50 39 -10 12 -22 26 -28 33 -15 18 -12 173 3 203 44 83
51 90 117 121 37 17 76 22 225 30 242 12 341 27 411 64 16 8 37 15 47 15 9 0
17 4 17 9 0 5 14 14 30 21 17 7 30 16 30 21 0 5 5 9 10 9 6 0 51 41 101 90 49
50 94 90 99 90 13 0 81 70 76 78 -2 4 23 32 56 62 33 30 95 89 138 130 98 92
96 91 147 115 24 11 43 23 43 26 0 4 17 14 38 22 21 8 44 22 51 31 8 9 19 16
26 16 6 0 20 9 30 20 10 11 25 20 34 20 9 0 59 21 111 46 109 54 113 55 199
83 43 14 91 21 144 21 43 0 87 5 98 10 21 12 26 61 10 104 -12 29 -68 89 -93
99 -10 3 -18 15 -18 25 0 12 -13 23 -35 32 -19 8 -35 17 -35 22 0 4 -7 8 -15
8 -8 0 -15 3 -15 8 0 4 -16 16 -35 26 -40 22 -115 88 -115 102 0 5 -9 16 -21
24 -11 8 -27 26 -34 40 -7 14 -22 34 -32 45 -10 11 -32 47 -48 80 -16 33 -33
62 -37 65 -4 3 -10 26 -14 50 -4 25 -12 52 -19 60 -6 8 -19 47 -28 86 -27 114
-24 546 4 680 11 54 24 101 30 102 5 2 9 10 9 18 0 8 4 22 9 32 20 35 81 171
81 178 0 3 9 14 20 24 10 9 24 28 30 41 12 28 30 58 48 77 6 7 12 18 12 23 0
13 117 129 130 129 5 0 23 14 38 30 16 17 33 30 39 30 5 0 18 8 29 18 29 26
101 73 140 91 12 5 23 13 25 18 2 4 44 28 94 53 89 45 195 134 195 164 0 8 2
20 5 28 6 14 -81 68 -109 68 -9 0 -16 5 -16 10 0 6 -7 10 -15 10 -9 0 -18 7
-21 15 -4 8 -10 15 -15 15 -5 0 -27 18 -49 40 -22 22 -44 40 -48 40 -4 0 -16
25 -26 55 -16 44 -18 72 -13 152 3 55 10 99 16 101 6 2 11 16 11 32 0 16 7 30
15 34 8 3 15 13 15 22 0 10 27 72 59 138 33 67 67 140 77 164 10 23 21 42 26
42 4 0 8 11 8 25 0 14 4 25 8 25 5 0 21 30 36 68 15 37 31 74 35 82 4 8 16 42
25 75 10 33 22 69 27 80 6 11 8 67 7 125 l-3 105 -170 -1 -170 -1 -120 -40
c-128 -43 -221 -84 -270 -117 -16 -12 -34 -21 -38 -21 -4 0 -11 -5 -15 -11 -4
-5 -25 -21 -47 -34 -22 -13 -44 -30 -48 -37 -5 -7 -12 -11 -17 -8 -4 3 -11 -2
-14 -11 -3 -8 -10 -13 -15 -9 -6 3 -15 -3 -21 -14 -6 -12 -16 -18 -25 -15 -8
4 -15 2 -15 -3 0 -23 -79 -53 -140 -53 -55 0 -66 3 -87 26 -22 24 -24 34 -21
98 l3 71 -35 -1 c-59 -3 -179 -46 -217 -79 -36 -30 -43 -35 -43 -31 0 3 -29
-23 -65 -58 -36 -35 -65 -66 -65 -70 0 -4 -6 -13 -12 -20 -7 -8 -20 -24 -28
-36 -8 -13 -27 -35 -42 -50 -16 -15 -28 -33 -28 -40 0 -7 -10 -22 -22 -34 -13
-12 -39 -44 -57 -71 -44 -63 -331 -346 -331 -327 0 4 -5 -1 -11 -11 -6 -9 -14
-15 -20 -12 -5 4 -9 2 -9 -3 0 -5 -33 -25 -72 -44 -67 -33 -103 -47 -199 -77
-53 -16 -364 -15 -381 2 -7 8 -19 12 -26 9 -6 -2 -12 0 -12 5 0 5 -20 14 -44
22 -24 7 -52 20 -62 29 -11 9 -31 23 -46 31 -16 8 -28 18 -28 23 0 4 -5 8 -11
8 -5 0 -40 30 -77 68 -120 120 -157 242 -121 400 10 47 78 195 91 200 4 2 8 8
8 13 0 6 11 22 25 37 14 15 25 32 25 39 0 7 5 13 10 13 6 0 10 7 10 15 0 8 4
15 9 15 5 0 12 12 16 27 3 15 10 30 14 33 19 12 64 98 86 163 20 56 25 93 25
168 0 97 -15 204 -32 226 -6 7 -14 27 -18 45 -5 18 -20 71 -35 118 -24 74 -28
108 -33 270 -6 161 -9 185 -24 188 -10 2 -45 -26 -89 -70 -39 -40 -75 -73 -78
-73 -11 0 -161 -156 -161 -167 0 -16 -80 -88 -99 -88 -9 0 -25 -7 -35 -15 -28
-21 -169 -21 -190 0 -8 8 -18 15 -22 15 -4 0 -34 29 -68 64 -102 108 -126 135
-126 145 0 5 -4 11 -8 13 -31 12 -152 340 -152 411 0 18 -5 38 -11 44 -16 16
-49 206 -49 281 l0 64 -82 78 c-46 43 -97 92 -114 109 -17 17 -35 31 -40 31
-5 0 -20 14 -34 30 -14 17 -28 30 -33 30 -17 0 -46 38 -71 92 -25 53 -26 66
-26 216 0 137 -2 161 -16 166 -25 9 -35 7 -99 -25z"/>
</g>
</svg>
