<?xml version="1.0" standalone="no"?>
<!DOCTYPE svg PUBLIC "-//W3C//DTD SVG 20010904//EN"
 "http://www.w3.org/TR/2001/REC-SVG-20010904/DTD/svg10.dtd">
<svg version="1.0" xmlns="http://www.w3.org/2000/svg"
 width="1019.000000pt" height="1019.000000pt" viewBox="0 0 1019.000000 1019.000000"
 preserveAspectRatio="xMidYMid meet">
<metadata>
Created by potrace 1.11, written by Peter Selinger 2001-2013
</metadata>
<g transform="translate(0.000000,1019.000000) scale(0.100000,-0.100000)"
fill="#000000" stroke="none">
<path d="M5189 9750 c-153 -77 -282 -265 -370 -538 -30 -93 -31 -106 -40 -347
-5 -137 -14 -275 -20 -305 -6 -30 -14 -131 -18 -225 -9 -197 -23 -241 -94
-299 -41 -34 -45 -35 -142 -38 -79 -2 -107 1 -134 15 -18 9 -36 15 -40 13 -12
-8 -105 49 -116 71 -12 23 -160 164 -210 199 -70 50 -170 91 -224 93 l-53 2 5
-28 c3 -15 17 -59 31 -98 25 -68 25 -76 26 -345 0 -210 4 -288 15 -330 8 -30
15 -71 15 -91 0 -19 5 -40 12 -47 62 -62 65 -646 3 -697 -6 -5 -15 -22 -18
-36 -4 -15 -29 -73 -56 -130 -42 -89 -60 -115 -122 -176 -83 -80 -148 -119
-265 -157 -73 -24 -90 -26 -229 -23 -107 2 -167 8 -210 21 -67 20 -208 89
-301 147 -34 22 -70 39 -81 39 -11 0 -87 50 -168 111 -82 62 -199 145 -260
185 -62 40 -115 80 -119 90 -4 10 -13 14 -26 11 -11 -3 -30 3 -43 14 -15 11
-49 21 -88 25 -56 5 -71 3 -127 -22 -34 -15 -62 -33 -63 -39 0 -16 -93 -86
-167 -127 -79 -43 -124 -47 -182 -17 -23 12 -43 19 -46 16 -6 -6 -156 89 -190
120 -11 10 -45 25 -75 32 -154 38 -359 82 -399 87 -71 8 -97 23 -155 88 -47
52 -57 59 -72 50 -23 -14 -31 -74 -32 -230 -1 -135 -4 -127 121 -346 28 -48
48 -93 46 -100 -3 -7 3 -29 13 -48 10 -19 29 -93 43 -165 36 -183 58 -268 73
-286 7 -8 13 -25 13 -37 0 -37 17 -66 87 -147 38 -44 79 -95 92 -113 12 -17
29 -32 37 -32 9 0 14 -10 14 -27 0 -16 7 -36 15 -47 26 -34 28 -96 6 -160 -33
-94 -30 -111 28 -141 27 -13 52 -29 56 -35 12 -19 77 -40 124 -40 31 0 61 -9
90 -25 23 -14 60 -27 81 -30 41 -5 65 -13 143 -48 29 -13 75 -32 102 -42 28
-9 59 -21 70 -25 11 -4 43 -13 70 -19 28 -7 57 -20 65 -31 8 -10 53 -37 100
-60 99 -49 156 -93 211 -162 l39 -50 0 -147 c0 -81 -4 -151 -9 -156 -4 -6 -18
-44 -31 -85 -12 -41 -42 -113 -66 -161 -24 -47 -44 -93 -44 -104 0 -10 -7 -26
-15 -35 -11 -12 -17 -52 -22 -143 -7 -152 -9 -150 110 -114 143 45 316 69 342
47 8 -6 50 -14 94 -17 61 -4 85 -10 97 -24 10 -11 27 -19 38 -19 27 0 86 -36
86 -52 0 -7 22 -32 50 -56 27 -23 70 -72 96 -107 25 -36 52 -65 60 -65 17 0
117 -197 110 -216 -13 -33 164 -224 225 -243 19 -6 60 -34 89 -61 30 -28 58
-50 63 -50 16 0 87 -64 84 -74 -3 -6 17 -33 43 -61 25 -27 65 -82 89 -122 l42
-71 -3 -109 c-6 -176 -76 -364 -171 -461 -56 -57 -227 -185 -264 -196 -13 -4
-23 -11 -23 -15 0 -13 -223 -124 -350 -174 -63 -25 -171 -62 -240 -82 -69 -20
-145 -43 -170 -50 -25 -7 -74 -16 -110 -20 -110 -12 -220 -71 -304 -164 -23
-25 -49 -53 -58 -63 -10 -10 -18 -21 -18 -25 0 -4 -10 -18 -23 -32 -48 -53
-157 -331 -157 -401 0 -41 44 -70 106 -70 32 0 54 6 68 18 31 28 222 108 291
123 90 19 253 16 375 -8 159 -32 209 -35 680 -43 433 -8 435 -8 540 -36 96
-25 123 -28 321 -31 198 -4 222 -2 277 16 34 12 76 21 94 21 103 1 238 58 331
141 88 78 137 171 166 314 32 152 129 495 147 515 7 8 17 27 23 43 14 37 57
53 82 31 10 -9 19 -26 21 -38 2 -14 9 -20 23 -18 11 1 46 5 77 9 62 6 68 13
68 86 0 27 7 45 25 63 l25 25 42 -24 c25 -14 52 -40 65 -62 21 -38 73 -188
108 -310 43 -151 69 -231 82 -246 7 -8 13 -26 13 -38 0 -32 66 -186 118 -275
26 -45 101 -124 156 -164 l50 -37 236 0 c142 0 257 5 290 12 121 26 287 53
320 53 20 0 40 4 46 10 5 5 54 12 109 15 54 3 117 10 140 15 61 14 156 12 225
-6 48 -12 103 -15 253 -12 186 3 194 4 248 31 53 25 64 27 195 27 185 0 188 1
181 57 -2 24 -12 52 -21 62 -9 10 -16 27 -16 38 0 36 -204 221 -440 398 -124
93 -225 175 -225 182 0 15 -157 140 -194 154 -41 16 -179 118 -201 148 -16 23
-20 45 -20 108 0 70 3 83 33 132 23 39 46 62 85 83 50 29 58 30 239 39 244 12
305 22 433 71 62 24 143 84 225 167 44 45 84 81 90 81 14 0 75 62 75 77 0 19
288 282 341 310 28 15 63 34 78 42 14 8 52 31 83 53 31 21 62 38 68 38 7 0 51
20 98 45 139 71 254 105 355 105 103 0 112 7 105 82 -5 48 -10 57 -59 102 -30
27 -53 53 -52 57 1 4 -26 23 -60 43 -103 61 -157 106 -229 196 -81 99 -146
217 -155 278 -3 24 -12 46 -19 49 -8 3 -14 13 -14 24 0 10 -7 44 -15 76 -24
92 -21 530 4 652 11 51 24 98 29 104 5 7 16 31 25 53 28 73 79 178 96 199 10
11 34 49 55 85 38 64 151 190 170 190 6 0 24 13 41 29 16 16 68 54 115 84 47
31 96 64 110 74 13 10 31 20 40 23 8 3 47 22 86 43 89 47 161 119 166 165 3
34 -10 45 -114 92 -15 7 -58 40 -95 73 -91 80 -107 119 -100 245 2 51 9 98 16
105 6 6 11 21 11 33 0 12 7 27 15 34 8 7 15 18 15 25 0 7 38 91 84 186 142
295 154 321 190 429 32 95 36 116 36 213 l0 109 -172 -4 c-182 -4 -190 -6
-368 -70 -115 -41 -205 -89 -328 -175 -57 -40 -105 -73 -108 -73 -2 0 -25 -13
-51 -30 -38 -24 -58 -30 -103 -30 -49 0 -60 4 -84 29 -27 28 -28 32 -21 100
l7 71 -31 0 c-84 0 -237 -75 -325 -158 -41 -38 -146 -166 -186 -227 -83 -124
-323 -376 -423 -444 -78 -53 -157 -91 -250 -122 -83 -27 -99 -29 -246 -29
-113 0 -162 4 -176 13 -11 7 -42 22 -70 31 -122 45 -293 194 -341 299 -26 56
-29 72 -29 167 0 102 2 107 41 191 23 47 66 122 97 166 32 44 57 85 57 89 0 5
18 36 40 69 22 32 52 95 66 138 24 73 26 89 22 205 -3 85 -10 142 -22 172 -9
25 -33 97 -53 160 -34 110 -35 124 -40 298 -5 174 -6 182 -26 182 -21 0 -327
-284 -327 -304 0 -21 -66 -77 -120 -102 -68 -32 -158 -33 -206 -3 -19 11 -75
64 -125 117 -75 80 -99 115 -139 197 -53 111 -110 284 -110 337 0 19 -6 40
-12 46 -17 17 -47 190 -47 273 l-1 66 -83 79 c-45 44 -123 114 -174 157 -130
111 -136 127 -143 342 l-5 170 -30 2 c-16 1 -55 -11 -86 -27z"/>
</g>
</svg>
